HIERARCHY
ROOT Hips
{
	OFFSET -3.958830 18.904000 13.208200
	CHANNELS 6 Xposition Yposition Zposition Zrotation Yrotation Xrotation 
	JOINT LHipJoint
	{
		OFFSET 0.000000 0.000000 0.000000
		CHANNELS 3 Zrotation Yrotation Xrotation
		JOINT LeftUpLeg
		{
			OFFSET 1.800000 -1.400000 0.085000
			CHANNELS 3 Zrotation Yrotation Xrotation
			JOINT LeftLeg
			{
				OFFSET 2.215000 -6.000000 0.000000
				CHANNELS 3 Zrotation Yrotation Xrotation
				JOINT LeftFoot
				{
					OFFSET 2.500000 -6.900000 0.000000
					CHANNELS 3 Zrotation Yrotation Xrotation
					JOINT LeftToeBase
					{
						OFFSET 0.200000 -0.500000 1.950000
						CHANNELS 3 Zrotation Yrotation Xrotation
						End Site
						{
							OFFSET 0.000000 0.000000 0.000000
						}
					}
				}
			}
		}
	}
	JOINT RHipJoint
	{
		OFFSET 0.000000 0.000000 0.000000
		CHANNELS 3 Zrotation Yrotation Xrotation
		JOINT RightUpLeg
		{
			OFFSET -1.800000 -1.400000 0.085000
			CHANNELS 3 Zrotation Yrotation Xrotation
			JOINT RightLeg
			{
				OFFSET -2.215000 -6.000000 0.000000
				CHANNELS 3 Zrotation Yrotation Xrotation
				JOINT RightFoot
				{
					OFFSET -2.500000 -6.900000 0.000000
					CHANNELS 3 Zrotation Yrotation Xrotation
					JOINT RightToeBase
					{
						OFFSET -0.200000 -0.500000 1.950000
						CHANNELS 3 Zrotation Yrotation Xrotation
						End Site
						{
							OFFSET 0.000000 0.000000 0.000000
						}
					}
				}
			}
		}
	}
	JOINT LowerBack
	{
		OFFSET 0.000000 0.000000 0.000000
		CHANNELS 3 Zrotation Yrotation Xrotation
		JOINT Spine
		{
			OFFSET -0.087000 1.940000 -0.288900
			CHANNELS 3 Zrotation Yrotation Xrotation
			JOINT Spine1
			{
				OFFSET 0.000000 1.950000 0.060000
				CHANNELS 3 Zrotation Yrotation Xrotation
				JOINT Neck
				{
					OFFSET 0.000000 0.000000 0.000000
					CHANNELS 3 Zrotation Yrotation Xrotation
					JOINT Neck1
					{
						OFFSET 0.000000 1.600000 0.340000
						CHANNELS 3 Zrotation Yrotation Xrotation
						JOINT Head
						{
							OFFSET 0.000000 1.667000 -0.240000
							CHANNELS 3 Zrotation Yrotation Xrotation
							End Site
							{
								OFFSET 0.000000 0.000000 0.000000
							}
						}
					}
				}
				JOINT LeftShoulder
				{
					OFFSET 0.000000 0.000000 0.000000
					CHANNELS 3 Zrotation Yrotation Xrotation
					JOINT LeftArm
					{
						OFFSET 2.700000 1.550000 -0.730000
						CHANNELS 3 Zrotation Yrotation Xrotation
						JOINT LeftForeArm
						{
							OFFSET 5.450000 0.000000 0.000000
							CHANNELS 3 Zrotation Yrotation Xrotation
							JOINT LeftHand
							{
								OFFSET 3.450000 0.000000 0.000000
								CHANNELS 3 Zrotation Yrotation Xrotation
								JOINT LeftHandIndex1
								{
									OFFSET 0.750000 0.000000 0.000000
									CHANNELS 3 Zrotation Yrotation Xrotation
									End Site
									{
										OFFSET 0.000000 0.000000 0.000000
									}
								}
							}
						}
					}
				}
				JOINT RightShoulder
				{
					OFFSET 0.000000 0.000000 0.000000
					CHANNELS 3 Zrotation Yrotation Xrotation
					JOINT RightArm
					{
						OFFSET -2.700000 1.550000 -0.730000
						CHANNELS 3 Zrotation Yrotation Xrotation
						JOINT RightForeArm
						{
							OFFSET -5.450000 0.000000 0.000000
							CHANNELS 3 Zrotation Yrotation Xrotation
							JOINT RightHand
							{
								OFFSET -3.450000 0.000000 0.000000
								CHANNELS 3 Zrotation Yrotation Xrotation
								JOINT RightHandIndex1
								{
									OFFSET -0.750000 0.000000 0.000000
									CHANNELS 3 Zrotation Yrotation Xrotation
									End Site
									{
										OFFSET 0.000000 0.000000 0.000000
									}
								}
							}
						}
					}
				}
			}
		}
	}
}
MOTION
Frames: 4
Frame Time: 0.016667
0.089960 17.629950 -3.661310 -6.300076 4.467372 1.058613 -14.592411 13.142194 2.700313 5.941097 -1.505299 -21.926013 0.953565 6.257555 29.204768 -0.505224 4.974087 3.033781 0.347730 -0.074750 0.254780 18.600566 -12.459796 2.542426 -9.332618 3.912541 -12.226171 1.745888 -7.943871 41.123936 -0.563926 -6.636072 2.414529 0.030160 0.481580 0.053390 -5.002220 1.155105 -7.364619 17.200539 3.220356 10.872855 -3.780243 4.257244 12.556809 1.444537 -1.906803 -12.880803 -4.542107 -3.060832 38.764758 -1.649800 -5.567260 -1.774160 -16.819985 -20.075932 9.398682 -33.932477 -5.255188 -8.120904 24.737361 -77.179268 -23.638791 -3.499594 2.625821 0.416430 0.286450 -0.336530 0.220790 14.020498 24.602235 7.340066 36.786513 31.022644 2.317727 -14.479812 27.263936 -4.402267 1.870876 -1.367854 -0.316910 0.364680 -0.009800 -0.218430 
0.100750 17.621190 -3.688040 -5.797611 7.165600 0.825268 -14.714536 13.053331 2.600184 4.399177 -1.744104 -21.846514 2.381217 5.542746 28.583135 -0.547183 4.688226 3.137660 0.408720 -0.009310 0.298610 18.554268 -11.917471 3.017928 -10.139111 6.834639 -19.015769 3.486727 -10.652360 52.789662 -0.984775 -8.421247 1.779279 0.075130 0.438810 0.030980 -4.827030 0.701543 -7.645971 15.255800 1.751030 13.390917 -4.005334 3.235166 12.087931 1.471643 -2.156424 -12.521299 -5.028818 -2.932182 38.520397 -0.513760 -6.069810 -3.365800 -17.011129 -19.674715 9.122755 -36.965671 -5.850770 -9.417543 24.138396 -78.046470 -24.421920 -3.446008 2.632516 0.440660 0.240220 -0.311910 0.232100 14.198914 24.464137 6.919058 38.257350 30.615991 1.691245 -12.949637 27.096669 -4.163776 1.890471 -1.371275 -0.314970 0.371740 -0.050580 -0.225900 
0.096690 17.615590 -3.733530 -5.313778 9.779496 0.460367 -14.854021 12.910001 2.521267 3.158331 -2.045243 -22.343560 3.771724 5.087225 29.273880 -0.552790 4.623363 3.140418 0.486120 0.091170 0.347120 18.512068 -11.246504 3.617542 -11.640365 9.096486 -25.761733 5.413166 -13.999948 61.917556 -1.460272 -10.101846 1.242226 0.119470 0.385390 0.032010 -4.604626 0.141674 -8.001883 13.051413 0.354938 16.671120 -4.280148 2.222996 11.541545 1.635674 -2.119179 -12.358204 -5.022041 -2.441940 39.034805 0.903410 -5.886050 -6.405740 -17.651376 -19.917654 8.819683 -38.533211 -6.248784 -10.840867 21.849050 -79.126574 -23.973770 -3.397009 2.650194 0.497240 0.182570 -0.239630 0.249020 14.585188 24.744747 6.810667 39.948998 29.879824 0.295037 -12.830374 27.304124 -4.397435 1.885573 -1.354215 -0.292460 0.390340 -0.090900 -0.227150 
0.081550 17.594340 -3.787570 -5.172681 12.875782 -0.243147 -14.981236 12.829425 2.411596 2.509916 -2.221938 -22.442300 5.080306 4.606637 29.275129 -0.549460 4.458535 3.169444 0.565960 0.186830 0.420200 18.472886 -10.534456 4.275742 -13.271227 10.792187 -32.135353 7.686852 -17.918170 69.146116 -1.932060 -11.622836 0.804373 0.144490 0.289020 0.006830 -4.397259 -0.562729 -8.377455 11.341793 -1.267260 20.719169 -4.668100 0.959855 10.800520 1.805617 -2.471443 -12.698028 -5.946503 -1.700115 40.761310 2.833910 -5.832430 -9.695950 -19.176885 -20.986091 8.805910 -38.951168 -5.537669 -12.709132 17.185948 -80.167960 -21.676119 -3.305717 2.703847 0.571580 0.083240 -0.153280 0.245140 15.841044 26.031526 7.293564 40.545141 28.099882 -2.292783 -13.236116 28.565989 -4.855093 1.885385 -1.323576 -0.260880 0.398830 -0.140950 -0.239350 
